<?xml version="1.0" encoding="utf-8"?>
<svg version="1.0" width="812.000000pt" height="481.000000pt" viewBox="0 0 812.000000 481.000000" preserveAspectRatio="xMidYMid meet" xmlns="http://www.w3.org/2000/svg">
  <g transform="translate(0.000000,481.000000) scale(0.100000,-0.100000)" fill="#ebe7e4" stroke="none">
    <path d="M0 2405 l0 -2405 4060 0 4060 0 0 2405 0 2405 -4060 0 -4060 0 0 -2405z m4990 695 l0 -1440 -1265 0 -1265 0 0 370 0 370 -135 0 -135 0 0 -1065 0 -1065 -960 0 -960 0 0 1180 0 1180 1500 0 1500 0 0 135 0 135 -1500 0 -1500 0 0 820 0 820 2360 0 2360 0 0 -1440z m1260 1416 c503 -94 910 -358 1202 -781 192 -277 317 -606 375 -985 24 -161 24 -539 0 -700 -79 -515 -286 -940 -614 -1261 -251 -247 -527 -398 -864 -473 -174 -39 -288 -46 -705 -46 l-384 0 0 2136 0 2136 448 -4 c372 -4 463 -8 542 -22z m1600 -448 l0 -473 -56 100 c-185 328 -420 584 -712 777 l-104 68 436 0 436 0 0 -472z m-2860 -3203 l0 -525 -1265 0 -1265 0 0 518 c0 285 3 522 7 525 3 4 573 7 1265 7 l1258 0 0 -525z m2857 -592 c-2 -2 -196 -2 -432 -1 l-427 3 76 48 c296 188 556 469 736 796 l45 82 3 -462 c1 -254 1 -464 -1 -466z"/>
  </g>
</svg>